<?xml version="1.0" encoding="UTF-8"?>
<svg id="Layer_2" xmlns="http://www.w3.org/2000/svg" version="1.1" viewBox="0 0 2843.8 987.1">
  <!-- Generator: Adobe Illustrator 30.2.1, SVG Export Plug-In . SVG Version: 2.1.1 Build 1)  -->
  <defs>
    <style>
      .st0, .st1 {
        fill-rule: evenodd;
      }

      .st0, .st2 {
        fill: #39b44a;
      }

      .st3, .st1 {
        fill: #fff;
      }
    </style>
  </defs>
  <g>
    <g>
      <path class="st2" d="M391.8,491.7c0-83.4,1.8-178.7,3.5-234.2h-2.4c-20.5,92.8-53.5,264.2-92.4,422.4h-96.1c-28.8-147.4-63-329.3-82-423.8h-3.3c3.5,57.1,6.2,159.5,6.2,243.9v179.9s-97.3,0-97.3,0V184.7s159.1,0,159.1,0c31.1,135,58.4,271.5,70.3,342.8h.9c12.1-66.3,49.3-213.5,80.3-342.8h155.3s0,495.2,0,495.2h-102.1s0-188.2,0-188.2Z"/>
      <path class="st2" d="M839.3,593.4c0,18.1,1.9,69.6,3.5,86.1h-95.4c-1.9-7.3-4.4-29.6-4.4-40.2-17.4,23.4-47.2,40.6-102.5,40.6-87.4,0-121.1-56.3-121.1-109,0-75.3,63.9-120.9,179.3-120.9,15.3,0,26.9,0,37.2.8v-40.1c0-21.4-3.4-46.5-48.9-46.5-43.6,0-48.7,23.2-51.3,47.4h-99.5c1.8-54.1,33.2-111.9,154.8-111.9,97.6,0,148.2,35.8,148.2,106v187.9ZM738.4,509.4c-10.6-1.4-20.1-1.5-33.9-1.5-59.8,0-81.5,22.8-81.5,53.3,0,22.7,13.3,48.5,52.2,48.5,53.6,0,63.2-32.9,63.2-88.4v-11.9Z"/>
      <path class="st2" d="M1181.6,563.6c0,54.4,0,96.8.9,115.9h-100.1c-2.5-11.4-3.4-34.3-4.2-47-20.1,34.4-52.8,47.3-101.2,47.3-64.7,0-113.7-26.2-113.7-112.1v-268.3s105.1,0,105.1,0v248.9c0,36.9,9.4,57.5,47.5,57.5,39.9,0,60.7-17.5,60.7-76.9v-229.5s105.1,0,105.1,0v264.1Z"/>
      <path class="st2" d="M1205.9,426.2c0-61.4,0-100-.9-126.7h102c.9,17.5.7,22,.7,61.5,17.1-42.3,57.3-61.4,119.2-61.5v90.4c-74.3-1.4-116.1,16.5-116.1,87.3l-.9,202.7h-105s.9-253.7.9-253.7Z"/>
      <path class="st2" d="M1448,299.5h111.4s0,380.3,0,380.3h-111.4s0-380.3,0-380.3ZM1448.8,184.4h111.4s-.8,99.5-.8,99.5h-111.4s.8-99.5.8-99.5Z"/>
    </g>
    <g>
      <path class="st1" d="M2013.3,361.6c0,29.4-4.6,55.4-13.7,78.1-9.1,22.7-21.3,41.9-36.7,57.7-15.3,15.8-32.9,27.7-52.7,35.7l-.8.3-.8.3c-114,46.3-180.4-42.9-141.7-149.3,16.3-44.7,47.1-92,81.7-134.8-5.7-1-11.5-1.5-17.4-1.5-13.8,0-26.9,2.7-39.4,8-12.5,5.3-23.3,13-32.7,23-9.4,10-16.8,21.9-22.4,35.7-5.6,13.8-8.3,29.4-8.3,46.7v.8c0,95.6-.2,223.5.2,317.5h-79.6V185.4h81.4v58.7c12.9-18.7,28.8-34.4,47.9-47.1,19.1-12.7,42.8-19,71.2-19s36.8,3.2,54.3,9.6c30.5-31.3,59.7-56.6,80.4-71.7-22.7,28.3-43.3,55-61.6,80l-.8,1.1-.2.3-2.1,2.9-.8,1-.4.5-.4.6-.8,1-.8,1.1-.8,1-.5.7-.3.3-.7,1.1-.8,1-.7,1-.7.9h-.1c0,.1-.7,1.2-.7,1.2l-.7,1-.8,1-.7,1h0c0,0-.7,1-.7,1l-.7,1-.7,1-.7,1-.2.3-.5.7-.7,1-.7,1-.7,1-.4.5-.3.5-.7,1-.7,1-.7,1-.5.7-.2.3-.7,1-.7,1-.7,1-.6.9h0c0,0-.7,1.1-.7,1.1l-.7,1-.7,1-.7,1h-.1c0,.1-.6,1-.6,1l-.7,1-.7,1-.7,1-.2.4-.4.6-.7,1-.7,1-.7,1-.4.6-.3.4-.7,1-.7,1-.6,1-.5.8v.2c-.1,0-.8,1-.8,1l-.6,1-.6,1-1.3,1.9-.6,1-.6.9-.6.9v.2c-.1,0-.6.7-.6.7l-.6.9-.6.9-.6.9h0c-27.5,42.3-46.8,78.5-57.9,108.6-32.6,88,23.8,138.1,82,75.7,9.1-9.8,16.3-21.7,21.7-35.7,5.3-14,8-29.7,8-47s-2.7-33-8-47c-5.3-14-12.6-25.9-21.7-35.7-.8-.9-1.6-1.7-2.4-2.5.2-.4.5-.8.7-1.1,14.2-21.9,29.3-43.5,44.8-64.7,5.9,4.6,11.6,9.7,17.1,15.3,15.3,15.8,27.6,35,36.9,57.7,9.3,22.7,14,48.7,14,78.1"/>
      <path class="st0" d="M1988.9,153.5l156-102.8h-129.4c21.3,36.1,12.4,70.4-26.6,102.8"/>
    </g>
    <g>
      <path class="st3" d="M2045,679.9v-321.1h77v321.1h-77ZM2223.8,441.4c-4.7-5.4-10.8-9.4-18.1-12.2-7.3-2.8-15.7-4.2-25.2-4.2-18.6,0-32.9,5.5-43.2,16.5-10.2,11-15.3,26.3-15.3,45.9l-6.5-72.7c9.3-19,21.4-33.8,36.3-44.5,14.9-10.7,31.4-16.1,49.3-16.1s26.7,2.1,38,6.3c11.3,4.2,21.2,10.5,29.7,18.7l-45.2,62.2Z"/>
      <path class="st3" d="M2389.1,684.5c-43.1,0-76.5-12.2-100.1-36.7-23.6-24.4-35.4-58.8-35.4-103.2v-52.3c0-43.9,11.8-78,35.4-102.1,23.6-24.1,57-36.2,100.1-36.2s76.5,12.1,100.1,36.2c23.6,24.1,35.4,58.2,35.4,102.1v53.2c0,44.1-11.8,78.3-35.4,102.5-23.6,24.2-57,36.3-100.1,36.3ZM2389.1,613.7c19.6,0,34.7-6,45.5-17.9,10.7-12,16.1-28.7,16.1-50.1v-53.2c0-21.4-5.4-38-16.1-49.8-10.7-11.8-25.9-17.6-45.5-17.6s-34.5,5.9-45.3,17.6c-10.8,11.8-16.2,28.4-16.2,49.8v53.2c0,21.4,5.4,38.2,16.2,50.1,10.8,12,25.9,17.9,45.3,17.9Z"/>
      <path class="st3" d="M2680,684.5c-28.7,0-55.3-4-80-12.1-24.6-8-46.1-19.7-64.5-35l44.9-55.7c16.5,11.5,33.2,20.3,50.1,26.3,16.9,6,33.4,9,49.5,9s39.5-3,51.2-9.1c11.6-6.1,17.5-14.9,17.5-26.4s-4-18.5-11.9-22.7c-7.9-4.2-18.3-7-31.1-8.4-12.8-1.3-26.5-2.7-41.1-4.2-13.4-1.4-26.7-3.3-39.7-5.7-13.1-2.4-25.1-6.4-35.9-12.2-10.8-5.8-19.5-14.4-26-25.8-6.5-11.4-9.7-27-9.7-46.6,0-33.2,10.9-58.5,32.8-75.8,21.9-17.3,53.5-26,95-26s48.8,3.5,71.5,10.5c22.7,7,43.5,17.3,62.5,30.9l-44.2,53.8c-15.1-9.1-30.3-16-45.6-20.7-15.4-4.7-30.3-7.1-44.7-7.1s-34.1,2.8-44.2,8.4c-10.1,5.6-15.2,13.8-15.2,24.7s3.5,13.9,10.5,17.5c7,3.6,16.2,6.1,27.7,7.4,11.4,1.3,23.8,2.6,37,3.9,13.8,1.2,27.7,3,41.8,5.3,14,2.3,27,6.5,38.8,12.7,11.9,6.2,21.4,15.5,28.6,27.8,7.2,12.4,10.8,29.3,10.8,50.7,0,34-11.6,60-34.8,77.8-23.2,17.8-57,26.8-101.3,26.8Z"/>
    </g>
  </g>
  <g>
    <path class="st3" d="M87.6,895.8l45.3-101.8h14.6v140.9h-14v-121.1l1.5,6.2-42.5,95.3h-9.9l-42.5-93.3,1.5-8.1v121.1h-14v-140.9h14.6l45.3,101.8Z"/>
    <path class="st3" d="M166.9,935l52-140.9h16.9l52,140.9h-15.5l-44.9-126.3-44.9,126.3h-15.5ZM190.8,900.8v-13h74.2v13h-74.2Z"/>
    <path class="st3" d="M309,935v-141h14v141h-14ZM317.6,875.4v-13h48.1c7.9,0,14.3-2.5,19.1-7.6,4.8-5.1,7.2-11.8,7.3-20.1,0-8.3-2.4-15-7.2-20.1-4.8-5.1-11.2-7.6-19.2-7.6h-48.1v-13h47.3c8.2,0,15.4,1.7,21.5,5.1,6.1,3.4,10.9,8.1,14.3,14.2,3.4,6.1,5.1,13.2,5.1,21.4s-1.7,15.3-5.1,21.4c-3.4,6.1-8.2,10.9-14.3,14.2-6.1,3.4-13.3,5.1-21.5,5.1h-47.3ZM395.1,935l-32.3-64,12.9-4.5,36.1,68.4h-16.7Z"/>
    <path class="st3" d="M438.4,935v-140.9h14v140.9h-14ZM451,902.8l-5.8-10.8,77.3-98h18l-89.5,108.8ZM529.7,935l-44.8-75.2,8-14.4,53.4,89.7h-16.7Z"/>
    <path class="st3" d="M567.7,935v-140.9h14v140.9h-14ZM577.3,807v-13h80.9v13h-80.9ZM577.3,871.5v-13h70.3v13h-70.3ZM577.3,935v-13h80.9v13h-80.9Z"/>
    <path class="st3" d="M670.9,807v-13h99.5v13h-99.5ZM713.6,935v-135.2h14v135.2h-14Z"/>
    <path class="st3" d="M806.6,794v140.9h-14v-140.9h14Z"/>
    <path class="st3" d="M844.4,934.9v-140.8h14.1l81.8,127-5.7-3.9v-123.1h14v140.8h-14.2l-83.5-128,7.6,5.5v122.4h-14Z"/>
    <path class="st3" d="M1030.9,863h48.9v20.7c0,11.8-1.8,21.6-5.5,29.4-3.7,7.8-9.1,13.7-16.4,17.5-7.3,3.9-16.4,5.8-27.4,5.8s-20.4-1.8-27.8-5.5c-7.4-3.7-12.9-9.2-16.6-16.5s-5.5-16.6-5.5-27.6v-41.6c0-11.8,1.8-21.5,5.5-29.3,3.7-7.8,9.1-13.6,16.4-17.5s16.4-5.8,27.4-5.8,17,1.6,23.6,4.7c6.6,3.1,12,7.7,16.2,13.9,4.2,6.2,7.2,13.9,9,23.3h-15.1c-2.5-9.6-6.5-16.8-12.1-21.7-5.6-4.8-12.8-7.2-21.6-7.2s-20.7,3.3-26.6,9.9c-5.9,6.6-8.8,16.5-8.8,29.8v41.6c0,12.3,3,21.5,9,27.5,6,6.1,15,9.1,27,9.1s20.2-3.2,26-9.5c5.8-6.3,8.6-16.3,8.6-30v-8h-34.1v-13Z"/>
    <path class="st3" d="M1204.7,867.2c-9.9,0-17.5,2.5-23,7.5-5.4,5-8.1,12.1-8.1,21.3s2.9,16,8.6,21c5.7,5,13.7,7.5,24.1,7.5s25-5,32.7-15c7.7-10,11.6-24.7,11.6-44h13c0,15.4-2,28.4-6.1,39-4,10.5-10.6,18.5-19.6,23.9-9,5.4-21,8.1-36,8.1s-23.5-3.5-30.8-10.6c-7.3-7-10.9-17-10.9-29.9s3.2-20.8,9.5-27.7c6.4-6.9,15.3-10.9,26.8-11.9l8.1,10.9ZM1254.8,935l-53.7-52.2c-8.7-8.4-15.3-16.6-20.1-24.6-4.7-8-7.1-16.8-7.1-26.6s3.3-21.9,9.9-28.6c6.6-6.8,15.9-10.1,27.9-10.1s21.2,3.2,27.8,9.7c6.6,6.5,9.8,15.7,9.8,27.6h-14c0-7.6-2.1-13.4-6.2-17.6-4.1-4.2-10-6.3-17.4-6.3s-13.4,2.2-17.6,6.6c-4.2,4.4-6.3,10.6-6.3,18.7s2.2,14.1,6.6,20.5c4.4,6.4,10.4,13.5,18,21.1l61.6,61.7h-19.3Z"/>
    <path class="st3" d="M1378.7,915.2l30.8-121.2h9.7l30.8,121.2,29.8-121.2h15.7l-38.3,140.9h-14.3l-27.9-111.1-29.1,111.1h-14.3l-38.3-140.9h15.7l29.8,121.2Z"/>
    <path class="st3" d="M1516.8,935v-140.9h14v140.9h-14ZM1526.4,807v-13h80.9v13h-80.9ZM1526.4,871.5v-13h70.3v13h-70.3ZM1526.4,935v-13h80.9v13h-80.9Z"/>
    <path class="st3" d="M1635.5,935v-140.9h14v140.9h-14ZM1647.1,935v-13h38.7c12.5,0,21.3-2.4,26.5-7.1,5.2-4.7,7.8-10.9,7.8-18.6v-.4c0-8.1-2.3-14.6-6.8-19.5-4.6-4.8-12.1-7.3-22.6-7.3h-43.5v-13h43.5c9.2,0,16.1-2,20.7-6.1,4.6-4.1,6.9-10.1,6.9-18.1s-2.5-14.6-7.6-18.7c-5-4.1-12.6-6.2-22.8-6.2h-40.8v-13h43.9c13.9,0,24.2,3.5,31,10.4,6.8,6.9,10.2,16.2,10.2,27.8s-2.1,13.2-6.2,19.2c-4.1,5.9-10.6,9.7-19.5,11.3,8.7,1.3,15.5,5.1,20.3,11.5,4.8,6.4,7.2,13.7,7.2,22v.3c0,11.5-3.7,20.8-11.1,27.8-7.4,7-17.5,10.6-30.2,10.6h-45.6Z"/>
    <path class="st3" d="M1859.3,936.4c-6.8,0-13.3-.6-19.3-1.9s-11.7-3.2-17-5.8c-5.3-2.6-10.2-5.8-14.8-9.7l8.4-11.1c5.9,5.2,12.5,9,19.5,11.6,7.1,2.6,14.8,3.9,23.1,3.9,12.1,0,21.5-2.4,28.1-7.2,6.6-4.8,9.9-11.5,9.9-20.2h0c0-6-1.6-10.5-4.8-13.7-3.2-3.2-7.4-5.6-12.7-7.2-5.2-1.6-10.8-3-16.9-4.2-5.6-1.1-11.3-2.3-16.9-3.6-5.7-1.3-10.8-3.2-15.5-5.6-4.7-2.4-8.4-5.8-11.3-10.3-2.8-4.4-4.3-10.3-4.3-17.6h0c0-13.2,4.4-23.4,13.1-30.6,8.7-7.2,21-10.8,36.9-10.8s14.8,1.2,22.1,3.6,14.3,6.1,21.3,11.1l-8.2,11c-6.1-4.3-12-7.4-17.8-9.5-5.8-2.1-11.6-3.2-17.3-3.2-11.5,0-20.4,2.4-26.8,7.2-6.3,4.8-9.5,11.6-9.5,20.5h0c0,5.9,1.8,10.3,5.4,13.4,3.6,3,8.2,5.3,14,6.9,5.7,1.5,11.8,3,18.2,4.3,5.4,1.1,10.8,2.4,16.1,3.9,5.3,1.5,10.2,3.5,14.5,6.1,4.3,2.6,7.8,6.1,10.4,10.5,2.6,4.4,3.9,10.1,3.9,17.1v.2c0,13-4.5,23-13.6,30.1-9,7.1-21.8,10.7-38.2,10.7Z"/>
    <path class="st3" d="M1981.9,936.4c-10.5,0-19.5-2-26.9-6.1-7.4-4.1-13-10-16.9-17.7-3.9-7.8-5.8-17.1-5.8-28.1v-39.9c0-11.1,1.9-20.4,5.8-28.2,3.9-7.7,9.5-13.6,16.9-17.7,7.4-4.1,16.3-6.1,26.9-6.1s19.5,2,26.9,6.1c7.4,4.1,13,10,16.9,17.7,3.9,7.7,5.8,17.1,5.8,28.2v39.9c0,11-1.9,20.4-5.8,28.1-3.9,7.8-9.5,13.7-16.9,17.7-7.4,4.1-16.3,6.1-26.9,6.1ZM1981.9,923.4c11.3,0,20.1-3.3,26.3-10,6.2-6.7,9.3-16.1,9.3-28.3v-41.3c0-12.2-3.1-21.6-9.3-28.3-6.2-6.7-15-10-26.3-10s-20.1,3.3-26.3,10c-6.2,6.7-9.3,16.1-9.3,28.3v41.3c0,12.2,3.1,21.6,9.3,28.3,6.2,6.7,15,10,26.3,10Z"/>
    <path class="st3" d="M2061.5,935v-140.9h14v140.9h-14ZM2071.4,935v-13h80.7v13h-80.7Z"/>
    <path class="st3" d="M2218.9,936.4c-16.5,0-28.9-4.3-37.1-12.8-8.2-8.6-12.3-21.4-12.3-38.6v-90.9h14v91.6c0,12.3,2.9,21.6,8.8,27.8,5.9,6.2,14.8,9.3,26.7,9.3s20.9-3.1,26.8-9.3c5.9-6.2,8.9-15.4,8.9-27.8v-91.6h14v90.9c0,17.2-4.1,30.1-12.4,38.6-8.2,8.6-20.7,12.8-37.3,12.8Z"/>
    <path class="st3" d="M2282.1,807v-13h99.5v13h-99.5ZM2324.9,935v-135.2h14v135.2h-14Z"/>
    <path class="st3" d="M2417.9,794v140.9h-14v-140.9h14Z"/>
    <path class="st3" d="M2502.3,936.4c-10.5,0-19.5-2-26.9-6.1-7.4-4.1-13-10-16.9-17.7-3.9-7.8-5.8-17.1-5.8-28.1v-39.9c0-11.1,1.9-20.4,5.8-28.2,3.9-7.7,9.5-13.6,16.9-17.7,7.4-4.1,16.3-6.1,26.9-6.1s19.5,2,26.9,6.1c7.4,4.1,13,10,16.9,17.7,3.9,7.7,5.8,17.1,5.8,28.2v39.9c0,11-1.9,20.4-5.8,28.1-3.9,7.8-9.5,13.7-16.9,17.7-7.4,4.1-16.3,6.1-26.9,6.1ZM2502.3,923.4c11.3,0,20.1-3.3,26.3-10,6.2-6.7,9.3-16.1,9.3-28.3v-41.3c0-12.2-3.1-21.6-9.3-28.3-6.2-6.7-15-10-26.3-10s-20.1,3.3-26.3,10c-6.2,6.7-9.3,16.1-9.3,28.3v41.3c0,12.2,3.1,21.6,9.3,28.3,6.2,6.7,15,10,26.3,10Z"/>
    <path class="st3" d="M2581.9,934.9v-140.8h14.1l81.8,127-5.7-3.9v-123.1h14v140.8h-14.2l-83.5-128,7.6,5.5v122.4h-14Z"/>
    <path class="st3" d="M2763.2,936.4c-6.8,0-13.3-.6-19.3-1.9s-11.7-3.2-17-5.8c-5.3-2.6-10.2-5.8-14.8-9.7l8.4-11.1c5.9,5.2,12.5,9,19.5,11.6,7.1,2.6,14.8,3.9,23.1,3.9,12.1,0,21.5-2.4,28.1-7.2,6.6-4.8,9.9-11.5,9.9-20.2h0c0-6-1.6-10.5-4.8-13.7-3.2-3.2-7.4-5.6-12.7-7.2-5.2-1.6-10.8-3-16.9-4.2-5.6-1.1-11.3-2.3-16.9-3.6-5.7-1.3-10.8-3.2-15.5-5.6-4.7-2.4-8.4-5.8-11.3-10.3-2.8-4.4-4.3-10.3-4.3-17.6h0c0-13.2,4.4-23.4,13.1-30.6,8.7-7.2,21-10.8,36.9-10.8s14.8,1.2,22.1,3.6,14.3,6.1,21.3,11.1l-8.2,11c-6.1-4.3-12-7.4-17.8-9.5-5.8-2.1-11.6-3.2-17.3-3.2-11.5,0-20.4,2.4-26.8,7.2-6.3,4.8-9.5,11.6-9.5,20.5h0c0,5.9,1.8,10.3,5.4,13.4,3.6,3,8.2,5.3,14,6.9,5.7,1.5,11.8,3,18.2,4.3,5.4,1.1,10.8,2.4,16.1,3.9,5.3,1.5,10.2,3.5,14.5,6.1,4.3,2.6,7.8,6.1,10.4,10.5s3.9,10.1,3.9,17.1v.2c0,13-4.5,23-13.6,30.1-9,7.1-21.8,10.7-38.2,10.7Z"/>
  </g>
</svg>