<?xml version="1.0" encoding="UTF-8"?>
<svg id="Layer_2" xmlns="http://www.w3.org/2000/svg" version="1.1" viewBox="0 0 1028.3 1031.2">
  <!-- Generator: Adobe Illustrator 30.2.1, SVG Export Plug-In . SVG Version: 2.1.1 Build 1)  -->
  <defs>
    <style>
      .st0 {
        fill: #fff;
        fill-rule: evenodd;
      }
    </style>
  </defs>
  <path class="st0" d="M609.6,312.1c-7.9-8.1-16.2-15.6-24.9-22.3-22.7,30.9-44.6,62.4-65.4,94.3-.4.6-.7,1.1-1.1,1.7,1.2,1.2,2.4,2.4,3.6,3.7,13.3,14.3,23.8,31.7,31.6,52.1,7.8,20.5,11.7,43.3,11.7,68.6s-3.9,48.2-11.7,68.6c-7.8,20.5-18.3,37.8-31.6,52.1-84.9,91.1-167.2,18-119.7-110.5,16.3-43.9,44.4-96.7,84.5-158.4l.9-1.4.9-1.4.9-1.4.7-1.1.2-.3.9-1.4.9-1.4.9-1.4,1.8-2.8.9-1.4.9-1.4.9-1.4.2-.3.7-1.1.9-1.4,1-1.4,1-1.4.4-.6.6-.8,1-1.4,1-1.4,1-1.4.6-.9.3-.5,1-1.4,1-1.4,1-1.4.8-1.2.2-.2,1-1.4,1-1.4,1-1.4,1-1.4h0c0,0,.9-1.5.9-1.5l1-1.4,1-1.5,1-1.5.3-.4.7-1.1,1-1.5,1-1.5,1-1.5.5-.7.6-.8,1-1.5,1-1.5,1-1.5.7-1,.3-.4,1-1.5,1.1-1.5,1-1.5,1-1.4h0c0-.1,1-1.6,1-1.6l1.1-1.5,1-1.5,1.1-1.5.2-.2,1-1.3,1.1-1.5,1.1-1.5,1.1-1.5.4-.5.7-1,1.1-1.5,1.1-1.5,1.1-1.5.6-.8.5-.7,1.1-1.5,3.1-4.3.3-.4,1.1-1.6c26.7-36.5,56.7-75.4,89.9-116.7-30.3,22-72.8,59-117.3,104.6-25.6-9.3-52-14-79.3-14-41.4,0-75.9,9.3-103.8,27.7-27.9,18.5-51.1,41.4-70,68.7v-85.7h-118.8v721.5h116.1c-.6-137.1-.2-323.7-.2-463.2v-1.2c0-25.3,4.1-48,12.2-68.2,8.1-20.1,19-37.5,32.7-52.1,13.6-14.6,29.5-25.8,47.7-33.6,18.2-7.8,37.3-11.7,57.5-11.7s17.2.7,25.4,2.2c-50.5,62.5-95.5,131.4-119.2,196.7-56.4,155.3,40.4,285.4,206.8,217.9l1.2-.5,1.2-.5c28.9-11.7,54.5-29,76.9-52.1,22.4-23,40.2-51.1,53.5-84.2,13.3-33.1,20-71.1,20-113.9s-6.8-80.8-20.5-113.9c-13.6-33.1-31.5-61.2-53.9-84.2Z"/>
  <path class="st0" d="M687.1,56.5c31,52.7,18.1,102.7-38.8,150l227.6-150h-188.8Z"/>
</svg>