<?xml version="1.0" encoding="UTF-8"?>
<svg id="Layer_1" xmlns="http://www.w3.org/2000/svg" version="1.1" viewBox="0 0 491.8 162.5">
  <!-- Generator: Adobe Illustrator 30.2.1, SVG Export Plug-In . SVG Version: 2.1.1 Build 1)  -->
  <defs>
    <style>
      .st0, .st1 {
        fill: #39b44a;
      }

      .st0, .st2 {
        fill-rule: evenodd;
      }
    </style>
  </defs>
  <g>
    <g>
      <path class="st1" d="M69.2,80.9c0-14.3.3-30.7.6-40.2h-.4c-3.5,15.9-9.2,45.3-15.8,72.5h-16.5c-4.9-25.3-10.8-56.5-14.1-72.7h-.6c.6,9.8,1.1,27.4,1.1,41.8v30.9s-16.7,0-16.7,0V28.3s27.3,0,27.3,0c5.3,23.2,10,46.6,12.1,58.8h.2c2.1-11.4,8.5-36.6,13.8-58.8h26.6s0,84.9,0,84.9h-17.5s0-32.3,0-32.3Z"/>
      <path class="st1" d="M146,98.4c0,3.1.3,11.9.6,14.8h-16.4c-.3-1.2-.8-5.1-.8-6.9-3,4-8.1,7-17.6,7-15,0-20.8-9.7-20.8-18.7,0-12.9,11-20.7,30.8-20.7,2.6,0,4.6,0,6.4.1v-6.9c0-3.7-.6-8-8.4-8-7.5,0-8.3,4-8.8,8.1h-17.1c.3-9.3,5.7-19.2,26.6-19.2,16.7,0,25.4,6.1,25.4,18.2v32.2ZM128.7,84c-1.8-.2-3.4-.3-5.8-.3-10.3,0-14,3.9-14,9.2,0,3.9,2.3,8.3,9,8.3,9.2,0,10.8-5.6,10.8-15.2v-2Z"/>
      <path class="st1" d="M204.7,93.3c0,9.3,0,16.6.2,19.9h-17.2c-.4-2-.6-5.9-.7-8.1-3.5,5.9-9.1,8.1-17.4,8.1-11.1,0-19.5-4.5-19.5-19.2v-46s18,0,18,0v42.7c0,6.3,1.6,9.9,8.1,9.9,6.8,0,10.4-3,10.4-13.2v-39.4s18,0,18,0v45.3Z"/>
      <path class="st1" d="M208.8,69.7c0-10.5,0-17.2-.2-21.7h17.5c.2,3,.1,3.8.1,10.6,2.9-7.3,9.8-10.5,20.4-10.6v15.5c-12.7-.2-19.9,2.8-19.9,15l-.2,34.8h-18s.2-43.5.2-43.5Z"/>
      <path class="st1" d="M250.4,48h19.1s0,65.2,0,65.2h-19.1s0-65.2,0-65.2ZM250.5,28.2h19.1s-.1,17.1-.1,17.1h-19.1s.1-17.1.1-17.1Z"/>
    </g>
    <g>
      <path class="st2" d="M347.4,58.6c0,5-.8,9.5-2.4,13.4-1.6,3.9-3.7,7.2-6.3,9.9-2.6,2.7-5.6,4.7-9,6.1h-.1c0,0-.1.1-.1.1-19.6,7.9-30.9-7.4-24.3-25.6,2.8-7.7,8.1-15.8,14-23.1-1-.2-2-.3-3-.3-2.4,0-4.6.5-6.8,1.4-2.1.9-4,2.2-5.6,3.9-1.6,1.7-2.9,3.8-3.8,6.1-1,2.4-1.4,5-1.4,8h0c0,16.5,0,38.5,0,54.6h-13.6V28.4h14v10.1c2.2-3.2,4.9-5.9,8.2-8.1,3.3-2.2,7.3-3.3,12.2-3.3s6.3.5,9.3,1.6c5.2-5.4,10.2-9.7,13.8-12.3-3.9,4.9-7.4,9.4-10.6,13.7v.2c-.1,0-.2,0-.2,0l-.4.5v.2c-.1,0-.2,0-.2,0h0c0,0-.1.3-.1.3v.2c-.1,0-.3.2-.3.2h0c0,.1,0,.2,0,.2v.2c-.1,0-.3.2-.3.2v.2c-.1,0-.2.2-.2.2h0s-.1.2-.1.2v.2c-.1,0-.3.2-.3.2v.2c-.1,0-.1,0-.1,0v.2c-.1,0-.2.2-.2.2v.2c-.1,0-.2.2-.2.2h0c0,0,0,.2,0,.2v.2c-.1,0-.2.2-.2.2v.2c-.1,0-.2,0-.2,0h0c0,0-.1.3-.1.3v.2c-.1,0-.2.2-.2.2h0c0,.1,0,.2,0,.2v.2c-.1,0-.2.2-.2.2v.2c-.1,0-.2.2-.2.2h0s-.1.2-.1.2v.2c-.1,0-.2.2-.2.2v.2c-.1,0-.1,0-.1,0h0c0,.1-.1.3-.1.3v.2c-.1,0-.2.2-.2.2h0c0,0,0,.2,0,.2v.2c-.1,0-.2.2-.2.2v.2c-.1,0-.2,0-.2,0h0c0,0-.1.2-.1.2v.2c-.1,0-.2.2-.2.2h0c0,.1,0,.2,0,.2v.2c-.1,0-.2.2-.2.2v.2c-.1,0-.3.3-.3.3v.2c-.1,0-.2.2-.2.2v.2c-.1,0-.1,0-.1,0h0c0,.1-.1.3-.1.3v.2c-.1,0-.2.2-.2.2h0c-4.7,7.3-8,13.5-9.9,18.6-5.6,15.1,4.1,23.7,14.1,13,1.6-1.7,2.8-3.7,3.7-6.1.9-2.4,1.4-5.1,1.4-8.1s-.5-5.7-1.4-8.1c-.9-2.4-2.2-4.4-3.7-6.1-.1-.2-.3-.3-.4-.4,0,0,0-.1.1-.2,2.4-3.8,5-7.5,7.7-11.1,1,.8,2,1.7,2.9,2.6,2.6,2.7,4.7,6,6.3,9.9,1.6,3.9,2.4,8.4,2.4,13.4"/>
      <path class="st0" d="M343.2,22.9l26.8-17.6h-22.2c3.6,6.2,2.1,12.1-4.6,17.6"/>
    </g>
    <g>
      <path d="M352.8,113.2v-55.1h13.2v55.1h-13.2ZM383.5,72.3c-.8-.9-1.8-1.6-3.1-2.1-1.3-.5-2.7-.7-4.3-.7-3.2,0-5.7.9-7.4,2.8-1.8,1.9-2.6,4.5-2.6,7.9l-1.1-12.5c1.6-3.3,3.7-5.8,6.2-7.6,2.6-1.8,5.4-2.8,8.5-2.8s4.6.4,6.5,1.1c1.9.7,3.6,1.8,5.1,3.2l-7.7,10.7Z"/>
      <path d="M411.8,114c-7.4,0-13.1-2.1-17.2-6.3-4.1-4.2-6.1-10.1-6.1-17.7v-9c0-7.5,2-13.4,6.1-17.5,4.1-4.1,9.8-6.2,17.2-6.2s13.1,2.1,17.2,6.2c4.1,4.1,6.1,10,6.1,17.5v9.1c0,7.6-2,13.4-6.1,17.6-4.1,4.2-9.8,6.2-17.2,6.2ZM411.8,101.9c3.4,0,6-1,7.8-3.1,1.8-2.1,2.8-4.9,2.8-8.6v-9.1c0-3.7-.9-6.5-2.8-8.5-1.8-2-4.4-3-7.8-3s-5.9,1-7.8,3c-1.9,2-2.8,4.9-2.8,8.5v9.1c0,3.7.9,6.5,2.8,8.6,1.9,2.1,4.4,3.1,7.8,3.1Z"/>
      <path d="M461.7,114c-4.9,0-9.5-.7-13.7-2.1-4.2-1.4-7.9-3.4-11.1-6l7.7-9.6c2.8,2,5.7,3.5,8.6,4.5,2.9,1,5.7,1.5,8.5,1.5s6.8-.5,8.8-1.6c2-1,3-2.6,3-4.5s-.7-3.2-2-3.9c-1.4-.7-3.1-1.2-5.3-1.4-2.2-.2-4.5-.5-7.1-.7-2.3-.2-4.6-.6-6.8-1-2.2-.4-4.3-1.1-6.2-2.1-1.9-1-3.3-2.5-4.5-4.4s-1.7-4.6-1.7-8c0-5.7,1.9-10,5.6-13,3.7-3,9.2-4.5,16.3-4.5s8.4.6,12.3,1.8c3.9,1.2,7.5,3,10.7,5.3l-7.6,9.2c-2.6-1.6-5.2-2.7-7.8-3.6-2.6-.8-5.2-1.2-7.7-1.2s-5.9.5-7.6,1.4c-1.7,1-2.6,2.4-2.6,4.2s.6,2.4,1.8,3c1.2.6,2.8,1,4.7,1.3,2,.2,4.1.5,6.3.7,2.4.2,4.8.5,7.2.9,2.4.4,4.6,1.1,6.7,2.2,2,1.1,3.7,2.7,4.9,4.8,1.2,2.1,1.9,5,1.9,8.7,0,5.8-2,10.3-6,13.3-4,3.1-9.8,4.6-17.4,4.6Z"/>
    </g>
  </g>
  <g>
    <path d="M17,150.3l7.8-17.5h2.5v24.2h-2.4v-20.8l.2,1.1-7.3,16.3h-1.7l-7.3-16,.2-1.4v20.8h-2.4v-24.2h2.5l7.8,17.5Z"/>
    <path d="M30.6,157l8.9-24.2h2.9l8.9,24.2h-2.7l-7.7-21.7-7.7,21.7h-2.7ZM34.7,151.1v-2.2h12.7v2.2h-12.7Z"/>
    <path d="M55,157v-24.2h2.4v24.2h-2.4ZM56.5,146.8v-2.2h8.2c1.4,0,2.5-.4,3.3-1.3.8-.9,1.2-2,1.2-3.5,0-1.4-.4-2.6-1.2-3.5-.8-.9-1.9-1.3-3.3-1.3h-8.2v-2.2h8.1c1.4,0,2.6.3,3.7.9,1.1.6,1.9,1.4,2.5,2.4.6,1,.9,2.3.9,3.7s-.3,2.6-.9,3.7c-.6,1-1.4,1.9-2.5,2.4s-2.3.9-3.7.9h-8.1ZM69.8,157l-5.5-11,2.2-.8,6.2,11.7h-2.9Z"/>
    <path d="M77.2,157v-24.2h2.4v24.2h-2.4ZM79.4,151.5l-1-1.8,13.3-16.8h3.1l-15.3,18.7ZM92.9,157l-7.7-12.9,1.4-2.5,9.2,15.4h-2.9Z"/>
    <path d="M99.4,157v-24.2h2.4v24.2h-2.4ZM101,135v-2.2h13.9v2.2h-13.9ZM101,146.1v-2.2h12.1v2.2h-12.1ZM101,157v-2.2h13.9v2.2h-13.9Z"/>
    <path d="M117.1,135v-2.2h17.1v2.2h-17.1ZM124.4,157v-23.2h2.4v23.2h-2.4Z"/>
    <path d="M140.4,132.8v24.2h-2.4v-24.2h2.4Z"/>
    <path d="M146.8,157v-24.2h2.4l14,21.8-1-.7v-21.1h2.4v24.2h-2.4l-14.3-21.9,1.3.9v21h-2.4Z"/>
    <path d="M178.8,144.6h8.4v3.6c0,2-.3,3.7-.9,5-.6,1.3-1.6,2.3-2.8,3-1.3.7-2.8,1-4.7,1s-3.5-.3-4.8-.9c-1.3-.6-2.2-1.6-2.9-2.8s-.9-2.8-.9-4.7v-7.1c0-2,.3-3.7.9-5,.6-1.3,1.6-2.3,2.8-3s2.8-1,4.7-1,2.9.3,4,.8c1.1.5,2.1,1.3,2.8,2.4.7,1.1,1.2,2.4,1.5,4h-2.6c-.4-1.7-1.1-2.9-2.1-3.7-1-.8-2.2-1.2-3.7-1.2s-3.5.6-4.6,1.7c-1,1.1-1.5,2.8-1.5,5.1v7.1c0,2.1.5,3.7,1.5,4.7,1,1,2.6,1.6,4.6,1.6s3.5-.5,4.5-1.6c1-1.1,1.5-2.8,1.5-5.1v-1.4h-5.9v-2.2Z"/>
    <path d="M208.6,145.4c-1.7,0-3,.4-3.9,1.3-.9.9-1.4,2.1-1.4,3.6s.5,2.7,1.5,3.6c1,.9,2.4,1.3,4.1,1.3s4.3-.9,5.6-2.6c1.3-1.7,2-4.2,2-7.5h2.2c0,2.6-.3,4.9-1,6.7-.7,1.8-1.8,3.2-3.4,4.1-1.5.9-3.6,1.4-6.2,1.4s-4-.6-5.3-1.8c-1.2-1.2-1.9-2.9-1.9-5.1s.5-3.6,1.6-4.8c1.1-1.2,2.6-1.9,4.6-2l1.4,1.9ZM217.2,157l-9.2-8.9c-1.5-1.4-2.6-2.8-3.4-4.2-.8-1.4-1.2-2.9-1.2-4.6s.6-3.8,1.7-4.9,2.7-1.7,4.8-1.7,3.6.6,4.8,1.7c1.1,1.1,1.7,2.7,1.7,4.7h-2.4c0-1.3-.4-2.3-1.1-3-.7-.7-1.7-1.1-3-1.1s-2.3.4-3,1.1c-.7.8-1.1,1.8-1.1,3.2s.4,2.4,1.1,3.5c.8,1.1,1.8,2.3,3.1,3.6l10.6,10.6h-3.3Z"/>
    <path d="M238.5,153.6l5.3-20.8h1.7l5.3,20.8,5.1-20.8h2.7l-6.6,24.2h-2.5l-4.8-19.1-5,19.1h-2.5l-6.6-24.2h2.7l5.1,20.8Z"/>
    <path d="M262.2,157v-24.2h2.4v24.2h-2.4ZM263.8,135v-2.2h13.9v2.2h-13.9ZM263.8,146.1v-2.2h12.1v2.2h-12.1ZM263.8,157v-2.2h13.9v2.2h-13.9Z"/>
    <path d="M282.5,157v-24.2h2.4v24.2h-2.4ZM284.5,157v-2.2h6.6c2.1,0,3.7-.4,4.5-1.2.9-.8,1.3-1.9,1.3-3.2h0c0-1.5-.4-2.6-1.2-3.4-.8-.8-2.1-1.2-3.9-1.2h-7.5v-2.2h7.5c1.6,0,2.8-.3,3.6-1,.8-.7,1.2-1.7,1.2-3.1s-.4-2.5-1.3-3.2c-.9-.7-2.2-1.1-3.9-1.1h-7v-2.2h7.5c2.4,0,4.2.6,5.3,1.8,1.2,1.2,1.7,2.8,1.7,4.8s-.4,2.3-1.1,3.3c-.7,1-1.8,1.7-3.4,1.9,1.5.2,2.7.9,3.5,2,.8,1.1,1.2,2.4,1.2,3.8h0c0,2-.6,3.6-1.9,4.8-1.3,1.2-3,1.8-5.2,1.8h-7.8Z"/>
    <path d="M320.9,157.2c-1.2,0-2.3-.1-3.3-.3s-2-.6-2.9-1c-.9-.4-1.7-1-2.5-1.7l1.4-1.9c1,.9,2.1,1.6,3.4,2,1.2.4,2.5.7,4,.7,2.1,0,3.7-.4,4.8-1.2,1.1-.8,1.7-2,1.7-3.5h0c0-1-.3-1.8-.8-2.3-.6-.5-1.3-1-2.2-1.2s-1.9-.5-2.9-.7c-1-.2-1.9-.4-2.9-.6-1-.2-1.9-.5-2.7-1-.8-.4-1.4-1-1.9-1.8-.5-.8-.7-1.8-.7-3h0c0-2.3.7-4,2.2-5.2s3.6-1.9,6.3-1.9,2.5.2,3.8.6,2.5,1.1,3.6,1.9l-1.4,1.9c-1-.7-2.1-1.3-3.1-1.6-1-.4-2-.5-3-.5-2,0-3.5.4-4.6,1.2-1.1.8-1.6,2-1.6,3.5h0c0,1,.3,1.8.9,2.3.6.5,1.4.9,2.4,1.2,1,.3,2,.5,3.1.7.9.2,1.9.4,2.8.7.9.3,1.7.6,2.5,1,.7.4,1.3,1,1.8,1.8s.7,1.7.7,2.9h0c0,2.3-.8,4-2.3,5.2-1.6,1.2-3.7,1.8-6.6,1.8Z"/>
    <path d="M342,157.2c-1.8,0-3.3-.3-4.6-1-1.3-.7-2.2-1.7-2.9-3-.7-1.3-1-2.9-1-4.8v-6.9c0-1.9.3-3.5,1-4.8.7-1.3,1.6-2.3,2.9-3,1.3-.7,2.8-1,4.6-1s3.3.3,4.6,1c1.3.7,2.2,1.7,2.9,3,.7,1.3,1,2.9,1,4.8v6.9c0,1.9-.3,3.5-1,4.8-.7,1.3-1.6,2.3-2.9,3-1.3.7-2.8,1-4.6,1ZM342,155c1.9,0,3.4-.6,4.5-1.7s1.6-2.8,1.6-4.8v-7.1c0-2.1-.5-3.7-1.6-4.8s-2.6-1.7-4.5-1.7-3.4.6-4.5,1.7-1.6,2.8-1.6,4.8v7.1c0,2.1.5,3.7,1.6,4.8s2.6,1.7,4.5,1.7Z"/>
    <path d="M355.6,157v-24.2h2.4v24.2h-2.4ZM357.3,157v-2.2h13.8v2.2h-13.8Z"/>
    <path d="M382.6,157.2c-2.8,0-5-.7-6.4-2.2-1.4-1.5-2.1-3.7-2.1-6.6v-15.6h2.4v15.7c0,2.1.5,3.7,1.5,4.8,1,1.1,2.5,1.6,4.6,1.6s3.6-.5,4.6-1.6c1-1.1,1.5-2.6,1.5-4.8v-15.7h2.4v15.6c0,2.9-.7,5.2-2.1,6.6-1.4,1.5-3.5,2.2-6.4,2.2Z"/>
    <path d="M393.5,135v-2.2h17.1v2.2h-17.1ZM400.8,157v-23.2h2.4v23.2h-2.4Z"/>
    <path d="M416.7,132.8v24.2h-2.4v-24.2h2.4Z"/>
    <path d="M431.2,157.2c-1.8,0-3.3-.3-4.6-1-1.3-.7-2.2-1.7-2.9-3-.7-1.3-1-2.9-1-4.8v-6.9c0-1.9.3-3.5,1-4.8.7-1.3,1.6-2.3,2.9-3,1.3-.7,2.8-1,4.6-1s3.3.3,4.6,1c1.3.7,2.2,1.7,2.9,3,.7,1.3,1,2.9,1,4.8v6.9c0,1.9-.3,3.5-1,4.8-.7,1.3-1.6,2.3-2.9,3-1.3.7-2.8,1-4.6,1ZM431.2,155c1.9,0,3.4-.6,4.5-1.7,1.1-1.1,1.6-2.8,1.6-4.8v-7.1c0-2.1-.5-3.7-1.6-4.8s-2.6-1.7-4.5-1.7-3.4.6-4.5,1.7-1.6,2.8-1.6,4.8v7.1c0,2.1.5,3.7,1.6,4.8s2.6,1.7,4.5,1.7Z"/>
    <path d="M444.9,157v-24.2h2.4l14,21.8-1-.7v-21.1h2.4v24.2h-2.4l-14.3-21.9,1.3.9v21h-2.4Z"/>
    <path d="M476,157.2c-1.2,0-2.3-.1-3.3-.3s-2-.6-2.9-1c-.9-.4-1.7-1-2.5-1.7l1.4-1.9c1,.9,2.1,1.6,3.4,2,1.2.4,2.5.7,4,.7,2.1,0,3.7-.4,4.8-1.2,1.1-.8,1.7-2,1.7-3.5h0c0-1-.3-1.8-.8-2.3-.6-.5-1.3-1-2.2-1.2s-1.9-.5-2.9-.7c-1-.2-1.9-.4-2.9-.6-1-.2-1.9-.5-2.7-1-.8-.4-1.4-1-1.9-1.8-.5-.8-.7-1.8-.7-3h0c0-2.3.7-4,2.2-5.2s3.6-1.9,6.3-1.9,2.5.2,3.8.6,2.5,1.1,3.6,1.9l-1.4,1.9c-1-.7-2.1-1.3-3.1-1.6-1-.4-2-.5-3-.5-2,0-3.5.4-4.6,1.2-1.1.8-1.6,2-1.6,3.5h0c0,1,.3,1.8.9,2.3.6.5,1.4.9,2.4,1.2,1,.3,2,.5,3.1.7.9.2,1.9.4,2.8.7.9.3,1.7.6,2.5,1,.7.4,1.3,1,1.8,1.8s.7,1.7.7,2.9h0c0,2.3-.8,4-2.3,5.2-1.6,1.2-3.7,1.8-6.6,1.8Z"/>
  </g>
</svg>