<?xml version="1.0" encoding="UTF-8"?>
<svg id="Layer_2" xmlns="http://www.w3.org/2000/svg" version="1.1" viewBox="0 0 1028.3 1096.7">
  <!-- Generator: Adobe Illustrator 30.2.1, SVG Export Plug-In . SVG Version: 2.1.1 Build 1)  -->
  <defs>
    <style>
      .st0 {
        fill: #39b44a;
        fill-rule: evenodd;
      }
    </style>
  </defs>
  <path class="st0" d="M684,543c0,42.8-6.7,80.8-20,113.9-13.3,33.1-31.1,61.2-53.5,84.2-22.4,23-48,40.4-76.9,52.1l-1.2.5-1.2.5c-166.3,67.5-263.2-62.6-206.8-217.9,23.7-65.3,68.8-134.2,119.2-196.7-8.3-1.5-16.8-2.2-25.4-2.2-20.1,0-39.2,3.9-57.5,11.7-18.2,7.8-34.1,19-47.7,33.6-13.6,14.6-24.5,32-32.7,52.1-8.1,20.1-12.2,42.8-12.2,68.2v1.2c0,139.5-.3,326.1.2,463.2h-116.1V286h118.8v85.7c18.8-27.3,42-50.1,70-68.7,27.9-18.5,62.5-27.7,103.8-27.7s53.7,4.7,79.3,14c44.5-45.6,87.1-82.6,117.3-104.6-33.2,41.3-63.1,80.2-89.9,116.7l-1.1,1.6-.3.4-3.1,4.3-1.1,1.5-.5.7-.6.8-1.1,1.5-1.1,1.5-1.1,1.5-.7,1-.4.5-1.1,1.5-1.1,1.5-1.1,1.5-1,1.3-.2.2-1.1,1.5-1,1.5-1.1,1.5-1,1.5h0c0,.1-1,1.5-1,1.5l-1,1.5-1.1,1.5-1,1.5-.3.4-.7,1-1,1.5-1,1.5-1,1.5-.6.8-.5.7-1,1.5-1,1.5-1,1.5-.7,1.1-.3.4-1,1.5-1,1.5-1,1.4-.9,1.4h0c0,0-1,1.5-1,1.5l-1,1.4-1,1.4-1,1.4-.2.2-.8,1.2-1,1.4-1,1.4-1,1.4-.3.5-.6.9-1,1.4-1,1.4-1,1.4-.6.8-.4.6-1,1.4-1,1.4-.9,1.4-.7,1.1-.2.3-.9,1.4-.9,1.4-.9,1.4-1.8,2.8-.9,1.4-.9,1.4-.9,1.4-.2.3-.7,1.1-.9,1.4-.9,1.4-.9,1.4h0c-40.1,61.7-68.3,114.5-84.5,158.4-47.5,128.4,34.8,201.6,119.7,110.5,13.3-14.3,23.8-31.6,31.6-52.1,7.8-20.5,11.7-43.3,11.7-68.6s-3.9-48.2-11.7-68.6c-7.8-20.4-18.3-37.8-31.6-52.1-1.2-1.3-2.4-2.5-3.6-3.7.3-.6.7-1.1,1.1-1.7,20.8-32,42.7-63.4,65.4-94.3,8.7,6.7,17,14.2,24.9,22.3,22.4,23.1,40.2,51.1,53.9,84.2,13.6,33.1,20.5,71.1,20.5,113.9"/>
  <path class="st0" d="M648.4,239.3l227.6-150h-188.8c31,52.7,18.1,102.7-38.8,150"/>
</svg>