<?xml version="1.0" encoding="UTF-8"?>
<svg id="Layer_2" xmlns="http://www.w3.org/2000/svg" version="1.1" viewBox="0 0 2966.3 1030.3">
  <!-- Generator: Adobe Illustrator 30.2.1, SVG Export Plug-In . SVG Version: 2.1.1 Build 1)  -->
  <defs>
    <style>
      .st0 {
        fill: #fff;
      }
    </style>
  </defs>
  <path class="st0" d="M456.6,279.1c-1.8,55.5-3.5,150.8-3.5,234.2v188.2h102.1V206.3h-155.3c-31,129.3-68.3,276.5-80.3,342.8h-.9c-11.9-71.3-39.2-207.8-70.3-342.8H89.2v495.2h97.3v-179.9c0-84.4-2.6-186.8-6.2-243.9h3.3c19.1,94.5,53.2,276.4,82,423.8h96.1c38.9-158.2,71.8-329.6,92.4-422.4h2.4Z"/>
  <path class="st0" d="M900.5,427.2c0-70.2-50.6-106-148.2-106s-153,57.8-154.8,111.9h99.5c2.6-24.1,7.7-47.4,51.3-47.4s48.9,25.1,48.9,46.5v40.1c-10.3-.8-21.9-.8-37.2-.8-115.4,0-179.3,45.6-179.3,120.9s33.6,109,121.1,109,85.2-17.2,102.5-40.6c0,10.6,2.5,33,4.4,40.2h95.4c-1.7-16.6-3.5-68-3.5-86.1v-187.9ZM799.6,543c0,55.5-9.7,88.4-63.2,88.4s-52.2-25.8-52.2-48.5,21.7-53.3,81.5-53.3,23.3,0,33.9,1.5v11.9Z"/>
  <path class="st0" d="M1242.8,585.2v-264.1h-105.1v229.5c0,59.4-20.8,76.9-60.7,76.9s-47.5-20.6-47.5-57.5v-248.9h-105.1v268.3c0,85.9,49,112.1,113.7,112.1s81.1-12.9,101.2-47.3c.8,12.6,1.7,35.6,4.2,47h100.1c-.9-19.2-.9-61.5-.9-115.9Z"/>
  <path class="st0" d="M1488.1,411.6v-90.4c-61.9,0-102.1,19.2-119.2,61.5,0-39.6.2-44-.7-61.5h-102c.9,26.6.9,65.3.9,126.7l-.9,253.7h105l.9-202.7c0-70.7,41.7-88.7,116.1-87.3Z"/>
  <rect class="st0" x="1509.2" y="321.2" width="111.4" height="380.3"/>
  <polygon class="st0" points="1621.5 206 1510 206 1509.2 305.5 1620.6 305.5 1621.5 206"/>
  <path class="st0" d="M1969.8,555.4l.8-.3.8-.3c19.8-8,37.4-19.9,52.7-35.7,15.3-15.8,27.6-35,36.7-57.7,9.1-22.7,13.7-48.7,13.7-78.1s-4.7-55.4-14-78.1c-9.4-22.7-21.6-41.9-36.9-57.7-5.4-5.6-11.1-10.7-17.1-15.3-15.5,21.2-30.6,42.7-44.8,64.7-.3.4-.5.8-.7,1.1.8.8,1.6,1.7,2.4,2.5,9.1,9.8,16.3,21.7,21.7,35.7,5.3,14,8,29.7,8,47s-2.7,33-8,47c-5.3,14-12.6,25.9-21.7,35.7-58.2,62.4-114.6,12.3-82-75.7,11.1-30.1,30.4-66.3,57.9-108.6l.6-.9.6-.9.6-.9.5-.7v-.2c.1,0,.8-1,.8-1l.6-.9.6-1,1.3-1.9.6-1,.6-1,.6-1v-.2c.1,0,.7-.8.7-.8l.6-1,.7-1,.7-1,.3-.4.4-.6.7-1,.7-1,.7-1,.4-.6.2-.4.7-1,.7-1,.7-1,.6-.8h.1c0-.1.7-1.1.7-1.1l.7-1,.7-1,.7-1h0c0,0,.6-1,.6-1l.7-1,.7-1,.7-1,.2-.3.5-.7.7-1,.7-1,.7-1,.3-.5.4-.5.7-1,.7-1,.7-1,.5-.7.2-.3.7-1,.7-1,.7-1,.7-.9h0c0,0,.7-1.1.7-1.1l.8-1,.7-1,.7-1h.1c0-.1.7-1,.7-1l.7-1,.8-1,.7-1.1.3-.3.5-.7.8-1,.8-1.1.8-1,.4-.6.4-.5.8-1,2.1-2.9.2-.3.8-1.1c18.3-25,38.9-51.7,61.6-80-20.8,15.1-49.9,40.4-80.4,71.7-17.5-6.4-35.7-9.6-54.3-9.6-28.4,0-52,6.3-71.2,19-19.1,12.7-35,28.4-47.9,47.1v-58.7h-81.4v494.5h79.6c-.4-94-.2-221.9-.2-317.5v-.8c0-17.3,2.8-32.9,8.3-46.7,5.6-13.8,13-25.7,22.4-35.7,9.3-10,20.2-17.7,32.7-23,12.5-5.3,25.6-8,39.4-8s11.8.5,17.4,1.5c-34.6,42.8-65.5,90-81.7,134.8-38.6,106.4,27.7,195.6,141.7,149.3Z"/>
  <path class="st0" d="M2076.7,72.3c21.3,36.1,12.4,70.4-26.6,102.8l156-102.8h-129.4Z"/>
  <path class="st0" d="M2183.2,509.1c0-19.6,5.1-34.9,15.3-45.9,10.2-11,24.6-16.5,43.2-16.5s17.9,1.4,25.2,4.2c7.3,2.8,13.3,6.9,18.1,12.2l45.2-62.2c-8.5-8.2-18.4-14.5-29.7-18.7-11.3-4.2-24-6.3-38-6.3s-34.4,5.4-49.3,16.1c-11.7,8.4-21.6,19.3-29.9,32.7v-44.2h-77v321.1h77v-192.4Z"/>
  <path class="st0" d="M2585.8,567.3v-53.2c0-43.9-11.8-78-35.4-102.1-23.6-24.1-57-36.2-100.1-36.2s-76.5,12.1-100.1,36.2c-23.6,24.1-35.4,58.2-35.4,102.1v52.3c0,44.3,11.8,78.7,35.4,103.2,23.6,24.4,57,36.7,100.1,36.7s76.5-12.1,100.1-36.3c23.6-24.2,35.4-58.4,35.4-102.5ZM2511.9,567.3c0,21.4-5.4,38.2-16.1,50.1-10.7,12-25.9,17.9-45.5,17.9s-34.5-6-45.3-17.9c-10.8-12-16.2-28.7-16.2-50.1v-53.2c0-21.4,5.4-38,16.2-49.8,10.8-11.8,25.9-17.6,45.3-17.6s34.7,5.9,45.5,17.6c10.7,11.8,16.1,28.4,16.1,49.8v53.2Z"/>
  <path class="st0" d="M2792.5,629.6c-11.7,6.1-28.7,9.1-51.2,9.1s-32.6-3-49.5-9c-16.9-6-33.6-14.7-50.1-26.3l-44.9,55.7c18.4,15.3,39.9,26.9,64.5,35,24.6,8,51.3,12.1,80,12.1,44.3,0,78.1-8.9,101.3-26.8,23.2-17.8,34.8-43.8,34.8-77.8s-3.6-38.4-10.8-50.7c-7.2-12.4-16.8-21.6-28.6-27.8-11.9-6.2-24.8-10.4-38.8-12.7-14-2.3-27.9-4-41.8-5.3-13.2-1.2-25.5-2.5-37-3.9-11.4-1.3-20.7-3.8-27.7-7.4-7-3.6-10.5-9.4-10.5-17.5s5.1-19.2,15.2-24.7c10.1-5.6,24.8-8.4,44.2-8.4s29.3,2.4,44.7,7.1c15.4,4.7,30.6,11.6,45.6,20.7l44.2-53.8c-19-13.6-39.8-23.9-62.5-30.9-22.7-7-46.5-10.5-71.5-10.5-41.5,0-73.1,8.7-95,26-21.9,17.3-32.8,42.6-32.8,75.8s3.2,35.1,9.7,46.6c6.5,11.4,15.2,20.1,26,25.8,10.8,5.8,22.8,9.9,35.9,12.2,13.1,2.4,26.3,4.3,39.7,5.7,14.6,1.4,28.4,2.8,41.1,4.2,12.8,1.3,23.1,4.1,31.1,8.4,7.9,4.2,11.9,11.8,11.9,22.7s-5.8,20.4-17.5,26.4Z"/>
  <polygon class="st0" points="148.9 917.5 103.6 815.7 88.9 815.7 88.9 956.6 102.9 956.6 102.9 846.9 143.9 937 153.8 937 194.8 845 194.8 956.6 208.8 956.6 208.8 815.7 194.1 815.7 148.9 917.5"/>
  <path class="st0" d="M280.1,815.7l-52,140.9h15.5l12.2-34.2h65.4l12.2,34.2h15.5l-52-140.9h-16.9ZM260.4,909.4l28.1-79.1,28.1,79.1h-56.2Z"/>
  <path class="st0" d="M447.7,891.9c6.1-3.4,10.9-8.1,14.3-14.2,3.4-6.1,5.1-13.2,5.1-21.4s-1.7-15.3-5.1-21.4c-3.4-6.1-8.2-10.8-14.3-14.2-6.1-3.4-13.3-5.1-21.5-5.1h-55.9v141h14v-59.6h42s0,0,0,0l30.1,59.6h16.7l-32.5-61.7c2.5-.8,4.9-1.8,7.1-3ZM384.2,828.6h42.7c8,0,14.4,2.5,19.2,7.6,4.8,5.1,7.2,11.8,7.2,20.1,0,8.3-2.5,15-7.3,20.1-4.8,5.1-11.1,7.6-19.1,7.6h-42.7v-55.4Z"/>
  <polygon class="st0" points="601.7 815.7 583.7 815.7 513.6 904.6 513.6 815.7 499.7 815.7 499.7 956.6 513.6 956.6 513.6 922.8 546.8 882.4 591 956.6 607.7 956.6 556.5 870.7 601.7 815.7"/>
  <polygon class="st0" points="638.6 815.7 629 815.7 629 956.6 638.6 956.6 642.9 956.6 719.5 956.6 719.5 943.6 642.9 943.6 642.9 893.1 708.9 893.1 708.9 880.1 642.9 880.1 642.9 828.7 719.5 828.7 719.5 815.7 642.9 815.7 638.6 815.7"/>
  <polygon class="st0" points="732.1 828.7 774.9 828.7 774.9 956.6 788.8 956.6 788.8 828.7 831.6 828.7 831.6 815.7 732.1 815.7 732.1 828.7"/>
  <rect class="st0" x="853.9" y="815.7" width="14" height="140.9"/>
  <polygon class="st0" points="995.8 933.8 919.7 815.7 905.6 815.7 905.6 956.5 919.6 956.5 919.6 840.2 995.5 956.5 1009.7 956.5 1009.7 815.7 995.8 815.7 995.8 933.8"/>
  <path class="st0" d="M1092.1,897.6h34.1v8c0,13.6-2.9,23.6-8.6,30-5.8,6.3-14.4,9.5-26,9.5s-21-3-27-9.1c-6-6.1-9-15.3-9-27.5v-41.6c0-13.2,2.9-23.2,8.8-29.8,5.9-6.6,14.7-9.9,26.6-9.9s16,2.4,21.6,7.2c5.6,4.8,9.6,12,12.1,21.7h15.1c-1.8-9.4-4.8-17.1-9-23.3-4.2-6.2-9.6-10.8-16.2-13.9-6.6-3.1-14.4-4.7-23.6-4.7s-20.1,1.9-27.4,5.8c-7.3,3.9-12.8,9.7-16.4,17.5-3.7,7.8-5.5,17.6-5.5,29.3v41.6c0,11,1.8,20.3,5.5,27.6,3.7,7.4,9.2,12.9,16.6,16.5,7.4,3.7,16.7,5.5,27.8,5.5s20.1-1.9,27.4-5.8c7.3-3.9,12.8-9.7,16.4-17.5,3.7-7.8,5.5-17.6,5.5-29.4v-20.7h-48.9v13Z"/>
  <path class="st0" d="M1318.7,926.1c4-10.5,6.1-23.5,6.1-39h-13c0,15.8-2.6,28.5-7.8,38.1l-30.2-30.3c-7.6-7.6-13.6-14.7-18-21.1-4.4-6.4-6.6-13.3-6.6-20.5s2.1-14.3,6.3-18.7c4.2-4.4,10-6.6,17.6-6.6s13.3,2.1,17.4,6.3c4.1,4.2,6.2,10,6.2,17.6h14c0-11.9-3.3-21.1-9.8-27.6-6.6-6.5-15.8-9.7-27.8-9.7s-21.3,3.4-27.9,10.1c-6.6,6.8-9.9,16.3-9.9,28.6s2.4,18.6,7.1,26.6c.3.5.6,1,1,1.6-4.8,2-8.9,4.8-12.3,8.5-6.4,6.9-9.5,16.2-9.5,27.7s3.6,22.8,10.9,29.9c7.3,7,17.5,10.6,30.8,10.6s27-2.7,36-8.1c2.1-1.2,4-2.6,5.8-4.1l11.1,10.8h19.3l-21.2-21.3c1.8-2.8,3.3-5.9,4.6-9.2ZM1267.5,946.1c-10.3,0-18.4-2.5-24.1-7.5-5.7-5-8.6-12-8.6-21s2.7-16.3,8.1-21.3c2.2-2,4.7-3.6,7.5-4.8,3.4,4.2,7.4,8.5,11.8,12.9l32.9,32c-7.2,6.5-16.5,9.7-27.8,9.7Z"/>
  <polygon class="st0" points="1511.3 936.8 1480.5 815.7 1470.8 815.7 1439.9 936.8 1410.2 815.7 1394.5 815.7 1432.8 956.6 1447.1 956.6 1476.2 845.5 1504.1 956.6 1518.5 956.6 1556.8 815.7 1541 815.7 1511.3 936.8"/>
  <polygon class="st0" points="1587.7 815.7 1578.1 815.7 1578.1 956.6 1587.7 956.6 1592 956.6 1668.6 956.6 1668.6 943.6 1592 943.6 1592 893.1 1658 893.1 1658 880.1 1592 880.1 1592 828.7 1668.6 828.7 1668.6 815.7 1592 815.7 1587.7 815.7"/>
  <path class="st0" d="M1767.8,884.4c8.9-1.6,15.4-5.4,19.5-11.3,4.1-5.9,6.2-12.3,6.2-19.2,0-11.6-3.4-20.9-10.2-27.8-6.8-6.9-17.1-10.4-31-10.4h-55.5v140.9h57.2c12.7,0,22.8-3.5,30.2-10.6,7.4-7,11.1-16.3,11.1-27.8v-.3c0-8.3-2.4-15.6-7.2-22-4.8-6.4-11.6-10.2-20.3-11.5ZM1749.2,828.7c10.1,0,17.7,2.1,22.8,6.2,5,4.1,7.6,10.4,7.6,18.7s-2.3,14.1-6.9,18.1c-4.6,4.1-11.5,6.1-20.7,6.1h-41.2v-49.1h38.5ZM1781.4,917.9c0,7.7-2.6,13.9-7.8,18.6-5.2,4.7-14,7.1-26.5,7.1h-36.3v-52.8h41.2c10.5,0,18.1,2.4,22.6,7.3,4.6,4.8,6.8,11.3,6.8,19.5v.4Z"/>
  <path class="st0" d="M1958.1,889.4c-4.3-2.6-9.2-4.6-14.5-6.1-5.3-1.5-10.7-2.8-16.1-3.9-6.4-1.3-12.5-2.7-18.2-4.3-5.7-1.6-10.4-3.8-14-6.9-3.6-3-5.4-7.5-5.4-13.3h0c0-8.9,3.2-15.8,9.5-20.6,6.3-4.8,15.3-7.2,26.8-7.2s11.4,1.1,17.3,3.2c5.8,2.1,11.8,5.3,17.8,9.5l8.2-11c-7-5-14.1-8.7-21.3-11.1-7.2-2.4-14.6-3.6-22.1-3.6-15.9,0-28.2,3.6-36.9,10.8-8.7,7.2-13.1,17.4-13.1,30.5h0c0,7.4,1.4,13.3,4.3,17.7,2.8,4.4,6.6,7.9,11.3,10.3,4.7,2.4,9.9,4.3,15.5,5.6,5.7,1.3,11.3,2.5,16.9,3.6,6.1,1.2,11.7,2.6,16.9,4.2,5.2,1.6,9.4,4,12.7,7.2,3.2,3.2,4.8,7.7,4.8,13.6h0c0,8.8-3.3,15.5-9.9,20.3-6.6,4.8-16,7.2-28.1,7.2s-16-1.3-23.1-3.9c-7.1-2.6-13.6-6.5-19.5-11.6l-8.4,11.1c4.6,3.9,9.5,7.1,14.8,9.7,5.3,2.6,10.9,4.5,17,5.8,6,1.3,12.5,1.9,19.3,1.9,16.4,0,29.1-3.6,38.2-10.7,9-7.1,13.6-17.2,13.6-30.1v-.2c0-7-1.3-12.7-3.9-17.1-2.6-4.4-6-7.9-10.4-10.5Z"/>
  <path class="st0" d="M2070,820.3c-7.4-4.1-16.3-6.1-26.9-6.1s-19.5,2-26.9,6.1c-7.4,4.1-13,10-16.9,17.7-3.9,7.7-5.8,17.1-5.8,28.2v39.9c0,11,1.9,20.4,5.8,28.1,3.9,7.8,9.5,13.7,16.9,17.7,7.4,4.1,16.3,6.1,26.9,6.1s19.5-2,26.9-6.1c7.4-4.1,13-10,16.9-17.7,3.9-7.8,5.8-17.1,5.8-28.1v-39.9c0-11.1-1.9-20.4-5.8-28.2-3.9-7.7-9.5-13.6-16.9-17.7ZM2078.7,906.8c0,12.1-3.1,21.6-9.3,28.3-6.2,6.7-15,10-26.3,10s-20.1-3.3-26.3-10-9.3-16.1-9.3-28.3v-41.3c0-12.1,3.1-21.6,9.3-28.3s15-10,26.3-10,20.1,3.3,26.3,10c6.2,6.7,9.3,16.1,9.3,28.3v41.3Z"/>
  <polygon class="st0" points="2136.7 815.7 2122.8 815.7 2122.8 956.6 2132.6 956.6 2136.7 956.6 2213.3 956.6 2213.3 943.6 2136.7 943.6 2136.7 815.7"/>
  <path class="st0" d="M2315.9,907.3c0,12.3-3,21.6-8.9,27.8-5.9,6.2-14.8,9.3-26.8,9.3s-20.8-3.1-26.7-9.3c-5.9-6.2-8.8-15.4-8.8-27.8v-91.6h-14v90.9c0,17.2,4.1,30.1,12.3,38.6,8.2,8.6,20.6,12.8,37.1,12.8s29-4.3,37.3-12.8c8.2-8.6,12.4-21.4,12.4-38.6v-90.9h-14v91.6Z"/>
  <polygon class="st0" points="2343.4 828.7 2386.1 828.7 2386.1 956.6 2400.1 956.6 2400.1 828.7 2442.8 828.7 2442.8 815.7 2343.4 815.7 2343.4 828.7"/>
  <rect class="st0" x="2465.1" y="815.7" width="14" height="140.9"/>
  <path class="st0" d="M2590.4,820.3c-7.4-4.1-16.3-6.1-26.8-6.1s-19.5,2-26.9,6.1c-7.4,4.1-13,10-16.9,17.7-3.9,7.7-5.8,17.1-5.8,28.2v39.9c0,11,1.9,20.4,5.8,28.1,3.9,7.8,9.5,13.7,16.9,17.7,7.4,4.1,16.3,6.1,26.9,6.1s19.5-2,26.8-6.1c7.4-4.1,13-10,16.9-17.7,3.9-7.8,5.8-17.1,5.8-28.1v-39.9c0-11.1-1.9-20.4-5.8-28.2-3.9-7.7-9.5-13.6-16.9-17.7ZM2599.1,906.8c0,12.1-3.1,21.6-9.3,28.3-6.2,6.7-15,10-26.3,10s-20.1-3.3-26.3-10-9.3-16.1-9.3-28.3v-41.3c0-12.1,3.1-21.6,9.3-28.3s15-10,26.3-10,20.1,3.3,26.3,10c6.2,6.7,9.3,16.1,9.3,28.3v41.3Z"/>
  <polygon class="st0" points="2733.3 933.8 2657.2 815.7 2643.1 815.7 2643.1 956.5 2657.1 956.5 2657.1 840.2 2733 956.5 2747.2 956.5 2747.2 815.7 2733.3 815.7 2733.3 933.8"/>
  <path class="st0" d="M2862,889.4c-4.3-2.6-9.2-4.6-14.5-6.1-5.3-1.5-10.7-2.8-16.1-3.9-6.4-1.3-12.5-2.7-18.2-4.3-5.7-1.6-10.4-3.8-14-6.9-3.6-3-5.4-7.5-5.4-13.3h0c0-8.9,3.2-15.8,9.5-20.6,6.3-4.8,15.3-7.2,26.8-7.2s11.4,1.1,17.3,3.2c5.8,2.1,11.8,5.3,17.8,9.5l8.2-11c-7-5-14.1-8.7-21.3-11.1-7.2-2.4-14.6-3.6-22.1-3.6-15.9,0-28.2,3.6-36.9,10.8-8.7,7.2-13.1,17.4-13.1,30.5h0c0,7.4,1.4,13.3,4.3,17.7,2.8,4.4,6.6,7.9,11.3,10.3,4.7,2.4,9.9,4.3,15.5,5.6,5.7,1.3,11.3,2.5,16.9,3.6,6.1,1.2,11.7,2.6,16.9,4.2,5.2,1.6,9.4,4,12.7,7.2,3.2,3.2,4.8,7.7,4.8,13.6h0c0,8.8-3.3,15.5-9.9,20.3-6.6,4.8-16,7.2-28.1,7.2s-16-1.3-23.1-3.9c-7.1-2.6-13.6-6.5-19.5-11.6l-8.4,11.1c4.6,3.9,9.5,7.1,14.8,9.7,5.3,2.6,10.9,4.5,17,5.8,6,1.3,12.5,1.9,19.3,1.9,16.4,0,29.1-3.6,38.2-10.7,9-7.1,13.6-17.2,13.6-30.1v-.2c0-7-1.3-12.7-3.9-17.1-2.6-4.4-6-7.9-10.4-10.5Z"/>
</svg>