<svg id="Layer_1" enable-background="new 0 0 500 500" viewBox="0 0 500 500" xmlns="http://www.w3.org/2000/svg"><path clip-rule="evenodd" d="m131.835 332.344c.681-.406 2.42-5.221-1.033-8.301l-16.737-12.615c-2.893-2.139-6.922-1.565-9.04 1.287-2.118 2.841-1.55 6.88 1.292 9.019l.826.625h-14.103v-47.349c0-3.554-2.893-6.442-6.457-6.442s-6.457 2.888-6.457 6.442v53.79c0 3.554 2.893 6.436 6.457 6.436h20.559l-.826.636c-4.938 3.757-2.279 11.597 3.874 11.597 1.343 0 2.686-.423 3.874-1.291l16.892-12.759zm5.269-172.54c0-2.025-1.653-3.683-3.668-3.683h-21.644v21.443c0 7.847-6.354 14.226-14.206 14.226h-11.106c-7.852 0-14.257-6.38-14.257-14.226v-21.443h-21.593c-2.015 0-3.719 1.658-3.719 3.683v82.806c0 2.035 1.705 3.683 3.719 3.683h83.064c1.86 0 3.41-1.539 3.41-3.425zm-51.967 17.76v-21.443h13.792v21.443c0 .728-.62 1.348-1.343 1.348h-11.106c-.723 0-1.343-.62-1.343-1.348zm64.829-17.76v83.064c0 8.988-7.284 16.303-16.272 16.303h-83.064c-9.143 0-16.582-7.428-16.582-16.561v-82.806c0-9.138 7.439-16.566 16.582-16.566h82.806c9.143 0 16.53 7.428 16.53 16.566zm303.123.011c0-2.035-1.653-3.683-3.719-3.683h-21.593v21.432c0 7.847-6.406 14.226-14.206 14.226h-11.106c-7.852 0-14.257-6.38-14.257-14.226v-21.432h-21.593c-2.066 0-3.719 1.648-3.719 3.683v83.054c0 1.885 1.55 3.425 3.461 3.425h83.013c2.066 0 3.719-1.658 3.719-3.683zm-51.967 17.749v-21.432h13.792v21.432c0 .728-.62 1.348-1.343 1.348h-11.106c-.774 0-1.343-.62-1.343-1.348zm64.83-17.749v82.796c0 9.128-7.438 16.561-16.582 16.561h-83.013c-8.988 0-16.323-7.315-16.323-16.303v-83.054c0-9.138 7.439-16.566 16.582-16.566h82.755c9.142-.001 16.581 7.428 16.581 16.566zm-48.713 108.753c-3.564 0-6.457 2.888-6.457 6.442v47.349h-14.102l.827-.625c2.841-2.139 3.409-6.178 1.291-9.019-2.118-2.852-6.147-3.425-8.988-1.287-2.24 1.684-16.562 12.203-17.357 13.198l-.93 1.405c-.79 1.267-.944 4.64.465 6.323l1.498 1.596 16.323 12.227c2.838 2.147 6.89 1.547 8.988-1.286 2.118-2.841 1.55-6.881-1.291-9.019l-.827-.636h20.56c3.564 0 6.457-2.882 6.457-6.436v-53.79c0-3.554-2.892-6.442-6.457-6.442zm-212.31-126.451c0 1.885 1.55 3.425 3.409 3.425h83.064c2.015 0 3.668-1.658 3.668-3.683v-82.801c0-2.03-1.653-3.683-3.668-3.683h-21.592v21.438c0 7.847-6.406 14.237-14.257 14.237h-11.106c-7.852 0-14.206-6.39-14.206-14.237v-21.438h-21.644c-2.015 0-3.668 1.653-3.668 3.683zm38.175-65.305v-21.437h13.793v21.438c0 .729-.62 1.359-1.343 1.359h-11.106c-.724-.001-1.344-.631-1.344-1.36zm-51.037 65.305v-83.059c0-9.133 7.387-16.561 16.53-16.561h82.806c9.143 0 16.582 7.428 16.582 16.561v82.801c0 9.128-7.439 16.561-16.582 16.561h-34.972v39.771l.671-.842c2.118-2.852 6.147-3.425 8.988-1.291 2.841 2.133 3.409 6.168 1.291 9.019-1.546 2.065-12.399 16.72-13.224 17.336l-1.24.827c0 .14-3.453 1.654-6.354-.284l-.672-.491-1.033-1.09-12.243-16.298c-2.118-2.851-1.55-6.886 1.292-9.019 2.841-2.133 6.87-1.56 9.04 1.291l.62.842v-39.771h-35.23c-8.987 0-16.27-7.315-16.27-16.303zm161.738 139.882c-.103-.165-.258-.388-.568-.491l-5.837-2.18c-.502-.177-1.081.12-1.24.558l-38.743 104.796.982 9.148 6.664-6.333 38.743-104.786c.102-.299.05-.547-.001-.712zm-29.651 151.448c0 6.168-5.011 11.173-11.158 11.173h-125.94c-6.199 0-11.209-5.006-11.209-11.173v-178.573c0-6.158 5.011-11.173 11.209-11.173h125.94c6.147 0 11.158 5.016 11.158 11.173v47.442l-29.341 79.309c-.31.93-.465 1.916-.362 2.903l2.48 23.623c.546 5.178 6.868 7.728 10.848 4.003l16.375-15.508zm41.325-156.841c1.55 3.358 1.705 7.113.413 10.569l-28.876 78.074v68.198c0 13.271-10.796 24.056-24.021 24.056h-125.94c-13.276 0-24.072-10.786-24.072-24.056v-178.573c0-13.26 10.796-24.052 24.072-24.052h125.94c13.224 0 24.021 10.791 24.021 24.052v15.833c3.721-3.947 9.629-5.379 14.826-3.461 5.889 2.174 10.797 3.224 13.637 9.36zm-88.23 118.15h-23.711c-3.564 0-6.457 2.882-6.457 6.442 0 3.554 2.893 6.442 6.457 6.442h23.711c3.564 0 6.405-2.888 6.405-6.442 0-3.56-2.841-6.442-6.405-6.442zm-44.683-13.937c-2.686-2.319-6.767-2.009-9.092.697l-14.102 16.427-5.682-5.848c-2.479-2.547-6.56-2.593-9.092-.114-2.583 2.485-2.634 6.56-.155 9.112l10.641 10.879c2.684 2.719 7.047 2.553 9.505-.3l18.7-21.768c2.273-2.706 1.963-6.766-.723-9.085zm56.513-38.082h-35.54c-3.564 0-6.457 2.883-6.457 6.436 0 3.559 2.893 6.442 6.457 6.442h35.54c3.564 0 6.457-2.883 6.457-6.442 0-3.553-2.893-6.436-6.457-6.436zm-56.513-13.937c-2.686-2.309-6.767-2.004-9.092.692l-14.102 16.437-5.682-5.848c-2.479-2.552-6.56-2.604-9.092-.119-2.583 2.49-2.634 6.56-.155 9.112l10.641 10.884c2.669 2.705 7.036 2.561 9.505-.305l18.7-21.773c2.273-2.69 1.963-6.766-.723-9.08zm20.972-25.193h47.421c3.513 0 6.405-2.888 6.405-6.442 0-3.559-2.893-6.441-6.405-6.441h-47.421c-3.564 0-6.457 2.882-6.457 6.441 0 3.554 2.893 6.442 6.457 6.442zm-20.249-17.734c2.273-2.707 1.963-6.767-.723-9.086-2.686-2.32-6.767-2.01-9.092.697l-14.102 16.427-5.682-5.848c-2.479-2.541-6.56-2.593-9.092-.114-2.583 2.485-2.634 6.56-.155 9.112l10.641 10.879c2.684 2.72 7.046 2.554 9.505-.299z" fill-rule="evenodd"/></svg>