<?xml version="1.0" encoding="UTF-8"?><svg id="Layer_1" xmlns="http://www.w3.org/2000/svg" viewBox="0 0 705.3 769.87"><defs><style>.cls-1{fill:#3bb54a;}.cls-1,.cls-2{fill-rule:evenodd;}</style></defs><path class="cls-2" d="M535.74,381.21c0,28.97-4.5,54.63-13.52,77.02-9,22.38-21.05,41.36-36.19,56.94-15.14,15.58-32.47,27.31-52,35.21l-.81.32-.81.32c-112.46,45.64-177.91-42.31-139.8-147.29,16.04-44.14,46.5-90.73,80.61-132.96-5.58-.99-11.33-1.48-17.2-1.48-13.6,0-26.53,2.63-38.84,7.9-12.29,5.27-23.03,12.83-32.24,22.71-9.22,9.87-16.58,21.61-22.07,35.22-5.48,13.61-8.23,28.97-8.23,46.08v.8c0,94.31-.23,220.49.17,313.17h-78.49V207.44h80.3v57.92c12.72-18.43,28.43-33.9,47.29-46.42,18.87-12.5,42.23-18.75,70.2-18.75,18.43,0,36.3,3.14,53.6,9.44,30.11-30.85,58.85-55.87,79.32-70.74-22.43,27.93-42.69,54.21-60.77,78.89l-.75,1.05-.21.26-2.08,2.88-.77,1.03-.36.49-.42.56-.75,1.03-.75,1.04-.75,1.03-.5.7-.25.33-.73,1.04-.75,1.02-.73,1.03-.65.91-.1.13-.73,1.02-.71,1.02-.75,1.02-.71,1.02-.06.09-.67.92-.71,1.02-.73,1.01-.71,1.01-.23.3-.48.71-.71,1-.71,1-.71,1.01-.37.51-.33.48-.69,1-.71,1-.69.99-.5.73-.19.26-.69,1-.69.99-.69.98-.62.93-.04.06-.69.98-.67.98-.67.98-.67.98-.1.15-.56.82-.67.98-.67.97-.67.97-.23.35-.42.61-.67.96-.65.97-.65.96-.37.55-.27.41-.65.95-.64.97-.62.95-.5.75-.15.2-.62.95-.63.95-.62.95-1.25,1.87-.6.95-.62.93-.62.94-.13.21-.48.73-.6.93-.6.93-.6.93h0c-27.12,41.72-46.15,77.42-57.14,107.09-32.11,86.83,23.51,136.27,80.91,74.69,9-9.65,16.12-21.39,21.39-35.22,5.27-13.83,7.89-29.29,7.89-46.41s-2.62-32.58-7.89-46.41c-5.27-13.82-12.39-25.56-21.39-35.22-.79-.86-1.6-1.69-2.42-2.51.23-.37.48-.76.73-1.13,14.04-21.62,28.88-42.87,44.21-63.78,5.85,4.54,11.48,9.58,16.83,15.09,15.14,15.59,27.2,34.56,36.42,56.95,9.21,22.38,13.83,48.05,13.83,77.01"/><path class="cls-1" d="M511.69,175.9l153.86-101.44h-127.66c20.97,35.61,12.25,69.42-26.2,101.44"/></svg>